<svg width="450" height="140" viewBox="0 0 450 140" fill="none" xmlns="http://www.w3.org/2000/svg">
<rect y="70" width="450" height="49" fill="white"/>
<circle cx="413" cy="73" r="37" fill="white"/>
<circle cx="350" cy="52" r="37" fill="white"/>
<circle cx="358" cy="73" r="37" fill="white"/>
<circle cx="301" cy="62" r="37" fill="white"/>
<circle cx="264" cy="80" r="37" fill="white"/>
<circle cx="234" cy="52" r="37" fill="white"/>
<circle cx="206" cy="62" r="37" fill="white"/>
<circle cx="170" cy="57" r="37" fill="white"/>
<circle cx="132" cy="73" r="37" fill="white"/>
<circle cx="112" cy="52" r="37" fill="white"/>
<circle cx="76" cy="67" r="37" fill="white"/>
<circle cx="58" cy="73" r="37" fill="white"/>
<circle cx="37" cy="73" r="37" fill="white"/>
<path d="M384.5 57L386.857 64.2553H394.486L388.314 68.7394L390.672 75.9947L384.5 71.5106L378.328 75.9947L380.686 68.7394L374.514 64.2553H382.143L384.5 57Z" fill="#D3F0FF"/>
<path d="M91.5 87L93.8574 94.2553H101.486L95.3143 98.7394L97.6717 105.995L91.5 101.511L85.3283 105.995L87.6857 98.7394L81.5139 94.2553H89.1426L91.5 87Z" fill="#D3F0FF"/>
<path d="M306 80L307.572 84.8369H312.657L308.543 87.8262L310.114 92.6631L306 89.6738L301.886 92.6631L303.457 87.8262L299.343 84.8369H304.428L306 80Z" fill="#D3F0FF"/>
<path d="M234 30L235.572 34.8369H240.657L236.543 37.8262L238.114 42.6631L234 39.6738L229.886 42.6631L231.457 37.8262L227.343 34.8369H232.428L234 30Z" fill="#D3F0FF"/>
<path d="M48 57L49.5716 61.8369H54.6574L50.5429 64.8262L52.1145 69.6631L48 66.6738L43.8855 69.6631L45.4571 64.8262L41.3426 61.8369H46.4284L48 57Z" fill="#FFD3D4"/>
<path d="M162 73L163.572 77.8369H168.657L164.543 80.8262L166.114 85.6631L162 82.6738L157.886 85.6631L159.457 80.8262L155.343 77.8369H160.428L162 73Z" fill="#FFD3D4"/>
</svg>
